<svg width="60" height="60" viewBox="0 0 60 60" fill="none" xmlns="http://www.w3.org/2000/svg">
<path d="M55.9667 30.0543C55.9667 29.6793 55.9479 29.3212 55.9179 28.9612C55.8026 27.4559 55.4402 25.98 54.8454 24.5924C55.2364 25.73 55.2305 26.9665 54.8287 28.1004C54.4269 29.2342 53.6529 30.1985 52.6329 30.8362C52.5392 30.8962 52.4454 30.9506 52.3423 31.0031L48.2529 33.3393L42.131 43.9669C45.8084 43.9495 49.3291 42.4757 51.9223 39.8682C54.5154 37.2606 55.9697 33.7318 55.9667 30.0543Z" fill="url(#paint0_linear_5501_55092)"/>
<path d="M48.2288 26.7713L42.0844 16.1644L42.0301 16.0725C41.1086 14.4965 39.8857 13.1173 38.4313 12.0139C36.9768 10.9105 35.3192 10.1043 33.5532 9.64156C31.7872 9.17876 29.9473 9.06837 28.1386 9.31668C26.3299 9.56499 24.5878 10.1671 23.0118 11.0887C22.6931 11.2762 22.3893 11.475 22.0912 11.6812C20.8501 12.5409 19.7582 13.5981 18.8587 14.8106C19.644 13.8993 20.7149 13.2808 21.8968 13.0561C23.0787 12.8314 24.3018 13.0136 25.3669 13.5731C25.4669 13.6256 25.5644 13.6819 25.6594 13.7419L29.8744 16.1794L31.575 17.16L46.4832 25.7663C47.6082 26.4207 48.4351 27.1913 48.9413 28.0163L48.2288 26.7713Z" fill="url(#paint1_linear_5501_55092)"/>
<path d="M54.832 24.5922C54.6595 24.1885 54.472 23.7953 54.2695 23.4128C53.0755 21.2221 51.3139 19.393 49.1695 18.1176C47.0251 16.8422 44.5769 16.1674 42.0819 16.1641L48.2263 26.771L48.9463 28.0141L48.9988 28.1022C49.0119 28.1266 49.0251 28.151 49.0401 28.1754C49.1458 28.3639 49.2373 28.5601 49.3138 28.7622C49.6502 29.6365 49.6374 30.6066 49.2782 31.4716C49.2011 31.6578 49.1108 31.8382 49.0082 32.0116L48.8751 32.2554L48.2507 33.3391L52.3401 31.0029C52.4376 30.9504 52.537 30.896 52.6307 30.836C53.6507 30.1984 54.4247 29.234 54.8265 28.1002C55.2283 26.9664 55.2342 25.7299 54.8432 24.5922H54.832Z" fill="url(#paint2_linear_5501_55092)"/>
<path d="M48.868 27.8754L48.2287 26.771L42.0842 16.1641H28.5992L28.7586 16.1753C29.1246 16.2144 29.4862 16.2879 29.8386 16.3947C30.4448 16.5805 31.0275 16.8359 31.5748 17.1559L46.483 25.7622C47.608 26.4166 48.4349 27.1872 48.9412 28.0122L48.868 27.8754Z" fill="#0076D0"/>
<path d="M29.8741 16.1758L25.6591 13.7383C25.5641 13.6783 25.4666 13.622 25.3666 13.5695C24.3011 13.0104 23.0777 12.8288 21.8958 13.0542C20.7139 13.2796 19.6433 13.8988 18.8584 14.8108C18.5972 15.1633 18.354 15.5264 18.129 15.9002C16.8353 18.0403 16.1431 20.4899 16.1252 22.9907C16.1074 25.4914 16.7647 27.9506 18.0278 30.109L24.1309 40.5472L24.5284 41.2278C24.2928 40.5482 24.1601 39.8372 24.1347 39.1184C24.1347 38.974 24.1347 38.8278 24.1347 38.6778V21.4633C24.1335 21.1338 24.1511 20.8046 24.1872 20.4771C24.2583 19.723 24.4654 18.988 24.7984 18.3077C25.5766 16.7683 26.9997 15.9977 28.7585 16.1758C29.1245 16.2149 29.4861 16.2884 29.8385 16.3952C30.4445 16.5816 31.027 16.837 31.5747 17.1564L29.8741 16.1758Z" fill="url(#paint3_linear_5501_55092)"/>
<path d="M24.8212 48.3188C24.392 47.5708 24.1507 46.7299 24.118 45.8681C24.118 45.7556 24.118 45.6431 24.118 45.5306L24.1293 40.5469L18.028 30.1068L17.9905 30.1724C17.0824 31.7563 16.4952 33.5035 16.2624 35.3143C16.0296 37.1251 16.1558 38.964 16.6337 40.726C17.1117 42.4881 17.932 44.1387 19.0479 45.5837C20.1638 47.0286 21.5534 48.2396 23.1374 49.1475C23.4562 49.335 23.7824 49.4963 24.1105 49.65C25.4704 50.2978 26.9272 50.7183 28.4231 50.895C27.6729 50.7495 26.9628 50.4441 26.3413 49.9995C25.7197 49.555 25.2013 48.9817 24.8212 48.3188Z" fill="url(#paint4_linear_5501_55092)"/>
<path d="M24.1873 20.477C24.2574 19.7347 24.4593 19.0109 24.7835 18.3395L18.0335 30.107L17.9828 30.1933L24.131 40.5471L24.5304 41.2277C24.2941 40.5482 24.1608 39.8372 24.1348 39.1183C24.1348 38.974 24.1348 38.8277 24.1348 38.6777V21.4632C24.1345 21.1338 24.1521 20.8046 24.1873 20.477Z" fill="#0076D0"/>
<path d="M46.9857 34.0634C46.8264 34.1684 46.6632 34.2734 46.487 34.3746L31.5788 42.9809C31.1779 43.2151 30.7583 43.4158 30.3244 43.5809C29.7551 43.8041 29.1551 43.9388 28.545 43.9803C26.67 44.0909 25.1253 43.1253 24.5287 41.2278C24.1527 40.0316 24.1312 39.1878 24.1312 39.1878L24.12 45.5309C24.12 45.6434 24.12 45.7559 24.12 45.8684C24.1652 47.0703 24.6161 48.2214 25.3992 49.1343C26.1823 50.0471 27.2515 50.6678 28.4325 50.8953C28.87 50.9478 29.3075 50.9785 29.745 50.9872C32.2457 51.0439 34.7153 50.4245 36.8934 49.1946C39.0714 47.9647 40.8772 46.1697 42.1201 43.999L42.1388 43.9672L48.2607 33.3396L49.0351 31.9952L49.0182 32.0121C48.5081 32.8435 47.8124 33.5456 46.9857 34.0634Z" fill="url(#paint5_linear_5501_55092)"/>
<g style="mix-blend-mode:darken">
<path d="M46.9874 34.0614C46.828 34.1664 46.663 34.2714 46.4886 34.3727L31.5804 42.979C31.1785 43.2124 30.7584 43.4131 30.3242 43.579C29.7956 43.7843 29.2408 43.9143 28.676 43.9652H42.1461L48.8961 32.2352L49.0199 32.0083C48.51 32.8404 47.8143 33.5431 46.9874 34.0614Z" fill="#0076D0"/>
</g>
<defs>
<linearGradient id="paint0_linear_5501_55092" x1="30.9999" y1="45.0001" x2="57.4999" y2="28.0001" gradientUnits="userSpaceOnUse">
<stop stop-color="#1859BF"/>
<stop offset="1" stop-color="#2FCCF7"/>
</linearGradient>
<linearGradient id="paint1_linear_5501_55092" x1="49.3764" y1="27.3807" x2="22.575" y2="9.30186" gradientUnits="userSpaceOnUse">
<stop stop-color="#1859BF"/>
<stop offset="1" stop-color="#2FCCF7"/>
</linearGradient>
<linearGradient id="paint2_linear_5501_55092" x1="53.9076" y1="29.7579" x2="36.9913" y2="16.4247" gradientUnits="userSpaceOnUse">
<stop stop-color="#8E5AE9"/>
<stop offset="1" stop-color="#D2CEFE"/>
</linearGradient>
<linearGradient id="paint3_linear_5501_55092" x1="16.5353" y1="36.2328" x2="29.3303" y2="15.7558" gradientUnits="userSpaceOnUse">
<stop stop-color="#D2CEFE"/>
<stop offset="1" stop-color="#8E5AE9"/>
</linearGradient>
<linearGradient id="paint4_linear_5501_55092" x1="23" y1="19.4999" x2="24.5" y2="52.9999" gradientUnits="userSpaceOnUse">
<stop stop-color="#1859BF"/>
<stop offset="1" stop-color="#2FCCF7"/>
</linearGradient>
<linearGradient id="paint5_linear_5501_55092" x1="48.9563" y1="41.8259" x2="24.1181" y2="40.9578" gradientUnits="userSpaceOnUse">
<stop stop-color="#D2CEFE"/>
<stop offset="1" stop-color="#8E5AE9"/>
</linearGradient>
</defs>
</svg>
