<?xml version="1.0" encoding="UTF-8"?>
<svg xmlns="http://www.w3.org/2000/svg" fill="none" width="300px" height="300px" viewBox="0 0 300 300">
    <path fill="#000" d="m43.32 61.03-5.803-21.376L16 45.317l5.804 21.517L43.32 61.03Zm0 31.426-21.516-5.804L16 108.169l21.517 5.662 5.804-21.375Zm27.18 15.713-15.713 15.713L70.5 139.595l15.713-15.713L70.5 108.169Zm27.18-15.713 5.803 21.517L125 108.169l-5.804-21.517-21.517 5.804Zm0-31.426 21.516 5.804L125 45.317l-21.517-5.663-5.804 21.376ZM70.5 45.317l15.713-15.713L70.5 13.89 54.787 29.604 70.5 45.317Z"></path>
</svg>